<svg width="390" height="211" viewBox="0 0 390 211" fill="none" xmlns="http://www.w3.org/2000/svg">
<g filter="url(#filter0_dd_305_2822)">
<rect x="40" y="20" width="310" height="131" rx="24" fill="#F7F7F7"/>
<path d="M71.4531 102L59.1719 67.6406H66.6953L75.3906 93.0703L83.8047 67.6406H91.1641L78.8594 102H71.4531ZM93.7656 73.7344V67.6406H100.352V73.7344H93.7656ZM93.7656 102V77.1094H100.352V102H93.7656ZM121.539 94.0781L128.102 95.1797C127.258 97.5859 125.922 99.4219 124.094 100.688C122.281 101.938 120.008 102.562 117.273 102.562C112.945 102.562 109.742 101.148 107.664 98.3203C106.023 96.0547 105.203 93.1953 105.203 89.7422C105.203 85.6172 106.281 82.3906 108.438 80.0625C110.594 77.7188 113.32 76.5469 116.617 76.5469C120.32 76.5469 123.242 77.7734 125.383 80.2266C127.523 82.6641 128.547 86.4062 128.453 91.4531H111.953C112 93.4062 112.531 94.9297 113.547 96.0234C114.562 97.1016 115.828 97.6406 117.344 97.6406C118.375 97.6406 119.242 97.3594 119.945 96.7969C120.648 96.2344 121.18 95.3281 121.539 94.0781ZM121.914 87.4219C121.867 85.5156 121.375 84.0703 120.438 83.0859C119.5 82.0859 118.359 81.5859 117.016 81.5859C115.578 81.5859 114.391 82.1094 113.453 83.1562C112.516 84.2031 112.055 85.625 112.07 87.4219H121.914ZM138.484 102L130.609 77.1094H137.008L141.672 93.4219L145.961 77.1094H152.312L156.461 93.4219L161.219 77.1094H167.711L159.719 102H153.391L149.102 85.9922L144.883 102H138.484ZM183.039 89.2031C183.039 87.0156 183.578 84.8984 184.656 82.8516C185.734 80.8047 187.258 79.2422 189.227 78.1641C191.211 77.0859 193.422 76.5469 195.859 76.5469C199.625 76.5469 202.711 77.7734 205.117 80.2266C207.523 82.6641 208.727 85.75 208.727 89.4844C208.727 93.25 207.508 96.375 205.07 98.8594C202.648 101.328 199.594 102.562 195.906 102.562C193.625 102.562 191.445 102.047 189.367 101.016C187.305 99.9844 185.734 98.4766 184.656 96.4922C183.578 94.4922 183.039 92.0625 183.039 89.2031ZM189.789 89.5547C189.789 92.0234 190.375 93.9141 191.547 95.2266C192.719 96.5391 194.164 97.1953 195.883 97.1953C197.602 97.1953 199.039 96.5391 200.195 95.2266C201.367 93.9141 201.953 92.0078 201.953 89.5078C201.953 87.0703 201.367 85.1953 200.195 83.8828C199.039 82.5703 197.602 81.9141 195.883 81.9141C194.164 81.9141 192.719 82.5703 191.547 83.8828C190.375 85.1953 189.789 87.0859 189.789 89.5547ZM236.547 102H229.961V89.2969C229.961 86.6094 229.82 84.875 229.539 84.0938C229.258 83.2969 228.797 82.6797 228.156 82.2422C227.531 81.8047 226.773 81.5859 225.883 81.5859C224.742 81.5859 223.719 81.8984 222.812 82.5234C221.906 83.1484 221.281 83.9766 220.938 85.0078C220.609 86.0391 220.445 87.9453 220.445 90.7266V102H213.859V77.1094H219.977V80.7656C222.148 77.9531 224.883 76.5469 228.18 76.5469C229.633 76.5469 230.961 76.8125 232.164 77.3438C233.367 77.8594 234.273 78.5234 234.883 79.3359C235.508 80.1484 235.938 81.0703 236.172 82.1016C236.422 83.1328 236.547 84.6094 236.547 86.5312V102Z" fill="#535353"/>
<path d="M283.43 51.4012C276.136 53.9315 269.846 58.7341 265.483 65.1035C261.121 71.473 258.916 79.0736 259.192 86.7889C259.468 94.5042 262.212 101.928 267.019 107.969C271.826 114.01 278.443 118.35 285.9 120.352C291.944 121.912 298.278 121.98 304.355 120.552C309.86 119.315 314.95 116.67 319.126 112.875C323.472 108.805 326.627 103.627 328.251 97.8988C330.016 91.6691 330.33 85.1177 329.169 78.7477H295.224V92.8287H314.883C314.49 95.0745 313.648 97.218 312.407 99.1308C311.167 101.044 309.553 102.687 307.663 103.961C305.262 105.549 302.556 106.618 299.718 107.098C296.872 107.627 293.953 107.627 291.107 107.098C288.222 106.502 285.493 105.311 283.094 103.602C279.239 100.873 276.345 96.9973 274.824 92.5264C273.277 87.9719 273.277 83.0342 274.824 78.4796C275.907 75.2871 277.696 72.3804 280.06 69.9763C282.764 67.1746 286.188 65.172 289.955 64.1881C293.723 63.2041 297.689 63.277 301.418 64.3986C304.331 65.2928 306.995 66.8552 309.197 68.9611C311.413 66.7559 313.626 64.545 315.835 62.3284C316.976 61.1364 318.219 60.0015 319.343 58.7811C315.981 55.6528 312.035 53.2186 307.731 51.6179C299.893 48.772 291.317 48.6955 283.43 51.4012Z" fill="white"/>
<path d="M283.43 51.4011C291.317 48.6935 299.893 48.768 307.731 51.6121C312.036 53.2236 315.98 55.6695 319.337 58.8094C318.196 60.0299 316.993 61.1705 315.83 62.3568C313.617 64.5658 311.406 66.7672 309.197 68.961C306.995 66.855 304.331 65.2927 301.418 64.3985C297.69 63.2729 293.724 63.1958 289.956 64.1757C286.187 65.1556 282.761 67.1546 280.054 69.9533C277.691 72.3574 275.901 75.2642 274.818 78.4567L262.996 69.3032C267.228 60.9114 274.555 54.4923 283.43 51.4011Z" fill="#E33629"/>
<path d="M259.859 78.3712C260.495 75.2219 261.55 72.172 262.996 69.3032L274.819 78.4796C273.272 83.0341 273.272 87.9718 274.819 92.5263C270.88 95.568 266.939 98.6249 262.996 101.697C259.375 94.49 258.271 86.2786 259.859 78.3712Z" fill="#F8BD00"/>
<path d="M295.224 78.7417H329.169C330.33 85.1117 330.016 91.6631 328.251 97.8928C326.627 103.621 323.472 108.799 319.126 112.869C315.311 109.892 311.478 106.938 307.663 103.961C309.554 102.685 311.169 101.04 312.41 99.1254C313.65 97.2105 314.491 95.0649 314.883 92.817H295.224C295.219 88.129 295.224 83.4354 295.224 78.7417Z" fill="#587DBD"/>
<path d="M262.99 101.697C266.933 98.6553 270.874 95.5985 274.813 92.5264C276.337 96.9987 279.235 100.875 283.094 103.602C285.501 105.303 288.235 106.484 291.124 107.069C293.97 107.599 296.889 107.599 299.735 107.069C302.573 106.589 305.279 105.521 307.68 103.933C311.495 106.91 315.328 109.864 319.143 112.841C314.968 116.638 309.878 119.285 304.372 120.523C298.295 121.952 291.962 121.883 285.917 120.323C281.136 119.047 276.67 116.797 272.8 113.713C268.703 110.461 265.357 106.362 262.99 101.697Z" fill="#319F43"/>
</g>
<defs>
<filter id="filter0_dd_305_2822" x="0" y="0" width="390" height="211" filterUnits="userSpaceOnUse" color-interpolation-filters="sRGB">
<feFlood flood-opacity="0" result="BackgroundImageFix"/>
<feColorMatrix in="SourceAlpha" type="matrix" values="0 0 0 0 0 0 0 0 0 0 0 0 0 0 0 0 0 0 127 0" result="hardAlpha"/>
<feOffset dy="2"/>
<feGaussianBlur stdDeviation="10"/>
<feColorMatrix type="matrix" values="0 0 0 0 0.717647 0 0 0 0 0.717647 0 0 0 0 0.717647 0 0 0 0.08 0"/>
<feBlend mode="normal" in2="BackgroundImageFix" result="effect1_dropShadow_305_2822"/>
<feColorMatrix in="SourceAlpha" type="matrix" values="0 0 0 0 0 0 0 0 0 0 0 0 0 0 0 0 0 0 127 0" result="hardAlpha"/>
<feOffset dy="20"/>
<feGaussianBlur stdDeviation="20"/>
<feColorMatrix type="matrix" values="0 0 0 0 0.717647 0 0 0 0 0.717647 0 0 0 0 0.717647 0 0 0 0.08 0"/>
<feBlend mode="normal" in2="effect1_dropShadow_305_2822" result="effect2_dropShadow_305_2822"/>
<feBlend mode="normal" in="SourceGraphic" in2="effect2_dropShadow_305_2822" result="shape"/>
</filter>
</defs>
</svg>
