<svg width="390" height="211" viewBox="0 0 390 211" fill="none" xmlns="http://www.w3.org/2000/svg">
<g filter="url(#filter0_dd_302_2797)">
<rect x="40" y="20" width="310" height="131" rx="24" fill="#F7F7F7"/>
<path d="M71.4531 101L59.1719 66.6406H66.6953L75.3906 92.0703L83.8047 66.6406H91.1641L78.8594 101H71.4531ZM93.7656 72.7344V66.6406H100.352V72.7344H93.7656ZM93.7656 101V76.1094H100.352V101H93.7656ZM121.539 93.0781L128.102 94.1797C127.258 96.5859 125.922 98.4219 124.094 99.6875C122.281 100.938 120.008 101.562 117.273 101.562C112.945 101.562 109.742 100.148 107.664 97.3203C106.023 95.0547 105.203 92.1953 105.203 88.7422C105.203 84.6172 106.281 81.3906 108.438 79.0625C110.594 76.7188 113.32 75.5469 116.617 75.5469C120.32 75.5469 123.242 76.7734 125.383 79.2266C127.523 81.6641 128.547 85.4062 128.453 90.4531H111.953C112 92.4062 112.531 93.9297 113.547 95.0234C114.562 96.1016 115.828 96.6406 117.344 96.6406C118.375 96.6406 119.242 96.3594 119.945 95.7969C120.648 95.2344 121.18 94.3281 121.539 93.0781ZM121.914 86.4219C121.867 84.5156 121.375 83.0703 120.438 82.0859C119.5 81.0859 118.359 80.5859 117.016 80.5859C115.578 80.5859 114.391 81.1094 113.453 82.1562C112.516 83.2031 112.055 84.625 112.07 86.4219H121.914ZM138.484 101L130.609 76.1094H137.008L141.672 92.4219L145.961 76.1094H152.312L156.461 92.4219L161.219 76.1094H167.711L159.719 101H153.391L149.102 84.9922L144.883 101H138.484ZM183.039 88.2031C183.039 86.0156 183.578 83.8984 184.656 81.8516C185.734 79.8047 187.258 78.2422 189.227 77.1641C191.211 76.0859 193.422 75.5469 195.859 75.5469C199.625 75.5469 202.711 76.7734 205.117 79.2266C207.523 81.6641 208.727 84.75 208.727 88.4844C208.727 92.25 207.508 95.375 205.07 97.8594C202.648 100.328 199.594 101.562 195.906 101.562C193.625 101.562 191.445 101.047 189.367 100.016C187.305 98.9844 185.734 97.4766 184.656 95.4922C183.578 93.4922 183.039 91.0625 183.039 88.2031ZM189.789 88.5547C189.789 91.0234 190.375 92.9141 191.547 94.2266C192.719 95.5391 194.164 96.1953 195.883 96.1953C197.602 96.1953 199.039 95.5391 200.195 94.2266C201.367 92.9141 201.953 91.0078 201.953 88.5078C201.953 86.0703 201.367 84.1953 200.195 82.8828C199.039 81.5703 197.602 80.9141 195.883 80.9141C194.164 80.9141 192.719 81.5703 191.547 82.8828C190.375 84.1953 189.789 86.0859 189.789 88.5547ZM236.547 101H229.961V88.2969C229.961 85.6094 229.82 83.875 229.539 83.0938C229.258 82.2969 228.797 81.6797 228.156 81.2422C227.531 80.8047 226.773 80.5859 225.883 80.5859C224.742 80.5859 223.719 80.8984 222.812 81.5234C221.906 82.1484 221.281 82.9766 220.938 84.0078C220.609 85.0391 220.445 86.9453 220.445 89.7266V101H213.859V76.1094H219.977V79.7656C222.148 76.9531 224.883 75.5469 228.18 75.5469C229.633 75.5469 230.961 75.8125 232.164 76.3438C233.367 76.8594 234.273 77.5234 234.883 78.3359C235.508 79.1484 235.938 80.0703 236.172 81.1016C236.422 82.1328 236.547 83.6094 236.547 85.5312V101Z" fill="#535353"/>
<g clip-path="url(#clip0_302_2797)">
<path d="M264 130C272.28 130 279 123.355 279 115.167V100.333H264C255.72 100.333 249 106.979 249 115.167C249 123.355 255.72 130 264 130Z" fill="#0ACF83"/>
<path d="M249 85.4998C249 77.3118 255.72 70.6665 264 70.6665H279V100.333H264C255.72 100.333 249 93.6878 249 85.4998Z" fill="#A259FF"/>
<path d="M249 55.8333C249 47.6453 255.72 41 264 41H279V70.6667H264C255.72 70.6667 249 64.0213 249 55.8333Z" fill="#F24E1E"/>
<path d="M279 41H294C302.28 41 309 47.6453 309 55.8333C309 64.0213 302.28 70.6667 294 70.6667H279V41Z" fill="#FF7262"/>
<path d="M309 85.4998C309 93.6878 302.28 100.333 294 100.333C285.72 100.333 279 93.6878 279 85.4998C279 77.3118 285.72 70.6665 294 70.6665C302.28 70.6665 309 77.3118 309 85.4998Z" fill="#1ABCFE"/>
</g>
</g>
<defs>
<filter id="filter0_dd_302_2797" x="0" y="0" width="390" height="211" filterUnits="userSpaceOnUse" color-interpolation-filters="sRGB">
<feFlood flood-opacity="0" result="BackgroundImageFix"/>
<feColorMatrix in="SourceAlpha" type="matrix" values="0 0 0 0 0 0 0 0 0 0 0 0 0 0 0 0 0 0 127 0" result="hardAlpha"/>
<feOffset dy="2"/>
<feGaussianBlur stdDeviation="10"/>
<feColorMatrix type="matrix" values="0 0 0 0 0.717647 0 0 0 0 0.717647 0 0 0 0 0.717647 0 0 0 0.08 0"/>
<feBlend mode="normal" in2="BackgroundImageFix" result="effect1_dropShadow_302_2797"/>
<feColorMatrix in="SourceAlpha" type="matrix" values="0 0 0 0 0 0 0 0 0 0 0 0 0 0 0 0 0 0 127 0" result="hardAlpha"/>
<feOffset dy="20"/>
<feGaussianBlur stdDeviation="20"/>
<feColorMatrix type="matrix" values="0 0 0 0 0.717647 0 0 0 0 0.717647 0 0 0 0 0.717647 0 0 0 0.08 0"/>
<feBlend mode="normal" in2="effect1_dropShadow_302_2797" result="effect2_dropShadow_302_2797"/>
<feBlend mode="normal" in="SourceGraphic" in2="effect2_dropShadow_302_2797" result="shape"/>
</filter>
<clipPath id="clip0_302_2797">
<rect width="60" height="89" fill="white" transform="translate(249 41)"/>
</clipPath>
</defs>
</svg>
